PathFileType	4	(X/Y/Z)	E:\Qualisys_Data\Carbon_Farble_Plate\Data\Amateur_Runner\S14\T1\S14T1V14_c3d.trc
DataRate	CameraRate	NumFrames	NumMarkers	Units	OrigDataRate	OrigDataStartFrame	OrigNumFrames
200.000000	200.000000	4	39	mm	200.000000	129	344
Frame#	Time	LSHO			RSHO			LICST			RICST			LASIS			LHEEL			RASIS			LTROC			RTROC			SACR			LTH1			LSK4			LTH2			LTH3			RHM5			LSK2			LTH4			RTH1			LTOE			RTH2			RTH3			RTH4			LLEP			RLEP			LSK1			LSK3			RSK1			LHM5			RSK2			LFT1			RSK3			RSK4			LLME			RLME			RTOE			RHEEL			RFT1			RFT2			LFT2			
		X1	Y1	Z1	X2	Y2	Z2	X3	Y3	Z3	X4	Y4	Z4	X5	Y5	Z5	X6	Y6	Z6	X7	Y7	Z7	X8	Y8	Z8	X9	Y9	Z9	X10	Y10	Z10	X11	Y11	Z11	X12	Y12	Z12	X13	Y13	Z13	X14	Y14	Z14	X15	Y15	Z15	X16	Y16	Z16	X17	Y17	Z17	X18	Y18	Z18	X19	Y19	Z19	X20	Y20	Z20	X21	Y21	Z21	X22	Y22	Z22	X23	Y23	Z23	X24	Y24	Z24	X25	Y25	Z25	X26	Y26	Z26	X27	Y27	Z27	X28	Y28	Z28	X29	Y29	Z29	X30	Y30	Z30	X31	Y31	Z31	X32	Y32	Z32	X33	Y33	Z33	X34	Y34	Z34	X35	Y35	Z35	X36	Y36	Z36	X37	Y37	Z37	X38	Y38	Z38	X39	Y39	Z39	

130	0.645	-625.2430419921875	1369.98046875	-510.3043518066406	-582.5474853515625	1390.568237304688	-204.2107543945312	-684.2554931640625	946.5485229492188	-456.5386962890625	-652.5089111328125	943.8133544921876	-176.2660369873047	-640.235107421875	897.2118530273438	-430.2200012207031	-939.4534301757812	110.6750564575195	-317.7978210449219	-629.6978759765625	901.2463989257812	-197.5412902832031	-785.9981689453125	829.7308349609375	-459.4642639160156	-772.7684936523438	850.1273803710938	-146.8484954833984	-805.0245361328125	961.3180541992188	-313.9841003417969	-665.2858276367188	608.27490234375	-458.6918029785156	-804.6165161132812	286.6944885253906	-403.4564514160156	-738.943359375	597.8015747070312	-439.2288818359375	-640.6190185546875	515.3245239257812	-428.8696899414062	-937.74951171875	179.3833923339844	-144.0944213867188	-752.6419677734375	367.5337219238281	-425.292236328125	-718.1590576171875	504.9743347167969	-415.4539184570312	-572.9614868164062	640.8094482421875	-139.9701385498047	-687.3396606445312	62.13161087036133	-337.801025390625	-649.5224609375	623.109375	-126.6389923095703	-547.2462768554688	545.019775390625	-160.8786315917969	-626.9003295898438	523.189453125	-140.3907623291016	-659.6488647460938	442.4127502441406	-416.6331481933594	-598.09521484375	466.6134033203125	-146.4409637451172	-681.7316284179688	328.2740478515625	-409.2290954589844	-737.6442260742188	244.4856567382812	-390.4972839355469	-671.4483032226562	383.8672180175781	-148.5887908935547	-753.2312622070312	60.86499404907227	-403.0932922363281	-710.1390991210938	460.2021789550781	-143.7230072021484	-932.78173828125	83.18568420410156	-291.6218872070312	-766.5176391601562	344.8992919921875	-161.9737396240234	-795.9298706054688	418.5761108398438	-156.9462127685547	-868.4715576171875	124.7701950073242	-376.254638671875	-937.3309326171876	321.1228332519531	-176.7719268798828	-904.4660034179688	114.0547943115234	-205.8977966308594	-987.2559814453124	359.3257751464844	-230.6557769775391	-1008.682373046875	332.734130859375	-259.5555725097656	-1006.168395996094	350.6591186523438	-203.1885681152344	-942.5099487304688	83.3803939819336	-345.2208557128906
131	0.65	-607.329345703125	1373.0966796875	-509.6291809082031	-569.4584350585938	1393.706665039062	-203.1818084716797	-669.0938110351562	948.995361328125	-456.2796936035156	-637.4407348632812	946.2782592773438	-176.1383819580078	-625.7899169921875	899.5502319335938	-430.1634826660156	-937.9491577148438	112.8662872314453	-316.8162536621094	-614.5218505859375	903.6798706054688	-196.6350555419922	-771.7894897460938	832.5835571289062	-459.107421875	-757.4210205078125	852.8480224609375	-146.7223510742188	-789.8905639648438	964.155517578125	-314.1218872070312	-656.2704467773438	609.232421875	-458.4097595214844	-802.2390747070312	289.2106018066406	-403.5433959960938	-730.3453979492188	600.679443359375	-439.1929626464844	-634.1377563476562	515.29541015625	-428.4365234375	-905.0430908203124	174.7673950195312	-143.8003540039062	-749.3487548828125	369.989013671875	-425.4458312988281	-712.4151000976562	507.3195190429688	-415.1135864257812	-554.6285400390625	646.6102905273438	-140.0521850585938	-687.060791015625	62.16652297973633	-337.76171875	-630.2968139648438	627.2239990234375	-127.2324066162109	-526.1951293945312	551.6193237304688	-161.5996856689453	-605.4586791992188	528.29931640625	-140.9089813232422	-655.3445434570312	443.1277160644531	-416.9072570800781	-575.4507446289062	472.3724060058594	-147.2765502929688	-678.7997436523438	329.72607421875	-409.4869995117188	-735.447021484375	246.1686096191406	-390.6129455566406	-646.6018676757812	387.2973327636719	-149.3221893310547	-753.0775756835938	60.97186279296875	-402.9383544921875	-687.4246215820312	462.554443359375	-144.5813293457031	-931.441162109375	85.02161407470703	-290.7515258789062	-740.476806640625	345.2005920410156	-162.5434112548828	-771.693603515625	418.17041015625	-157.4483184814453	-867.6090087890625	127.2565765380859	-376.1921081542969	-910.071533203125	316.142822265625	-176.3351135253906	-869.306640625	110.6762237548828	-205.5336151123047	-961.9598999023438	352.3428649902344	-230.0144653320312	-982.9132080078124	324.7303466796875	-258.3435974121094	-980.3766479492188	342.6923522949219	-202.9122161865234	-942.0057373046876	86.2703628540039	-344.427001953125
132	0.655	-588.0604858398438	1376.001708984375	-508.1218872070312	-556.4278564453125	1397.104858398438	-202.0254211425781	-653.7180786132812	951.3975830078124	-456.385986328125	-622.7258911132812	949.3931884765624	-175.789306640625	-610.159912109375	902.3075561523438	-430.1985168457031	-936.4119262695312	116.0795059204102	-316.4783020019531	-599.2984619140625	906.7737426757812	-196.2364654541016	-757.4353637695312	835.60302734375	-458.7475280761719	-741.8944702148438	856.3361206054688	-146.1919708251953	-774.7720336914062	967.1835327148438	-314.0442504882812	-647.5546264648438	610.4150390625	-458.3123779296875	-799.6267700195312	292.0045166015625	-403.1800231933594	-721.8034057617188	603.53759765625	-439.0574951171875	-627.9315185546875	516.08837890625	-428.5933532714844	-872.0416870117188	169.8199462890625	-143.1714172363281	-745.9960327148438	372.061279296875	-425.0074157714844	-706.2273559570312	509.9123229980469	-414.9956970214844	-536.0848388671875	652.8961791992188	-140.1018981933594	-687.0678100585938	62.18130874633789	-337.8056030273438	-611.8494262695312	631.6192626953125	-127.8038711547852	-506.0357666015625	558.6641845703125	-161.9351196289062	-584.8694458007812	533.1137084960938	-141.6276702880859	-651.3407592773438	444.3523254394531	-416.9235534667969	-552.9083862304688	478.1017150878906	-148.3634033203125	-675.8126220703125	331.4223327636719	-409.8189697265625	-733.142578125	248.1481781005859	-391.1628112792969	-621.8875732421875	389.6663513183594	-151.1912841796875	-752.8228149414062	61.4473991394043	-402.8768615722656	-665.10693359375	464.8038330078125	-145.2605743408203	-929.8792724609376	88.29253387451172	-290.75146484375	-714.6553955078125	345.5955505371094	-162.5725402832031	-748.3851318359375	417.7769775390625	-157.5899200439453	-865.84033203125	130.0122528076172	-376.0020751953125	-883.1139526367188	311.1260375976562	-174.9332733154297	-832.75732421875	107.4103240966797	-204.2021179199219	-936.63330078125	345.0964965820312	-229.273193359375	-956.566650390625	316.1857604980469	-258.0674438476562	-954.9686279296876	334.4547424316406	-201.8240814208984	-940.7357177734376	89.40409851074219	-344.4299621582031
133	0.66	-570.205322265625	1379.6064453125	-507.3058471679688	-543.1036987304688	1400.273315429688	-201.0186920166016	-638.2665405273438	954.3036499023438	-456.0183715820312	-607.0322875976562	952.706787109375	-175.5420837402344	-595.192626953125	904.9161987304688	-430.0470581054688	-933.6777954101562	120.6841125488281	-317.8550720214844	-583.9351196289062	909.97314453125	-196.402099609375	-743.0396728515625	838.9190063476562	-458.0847778320312	-726.0855102539062	859.992919921875	-145.8788757324219	-759.5504760742188	970.4148559570312	-314.3433837890625	-638.655029296875	611.9827270507812	-458.0310363769531	-797.0480346679688	295.0676879882812	-402.8878479003906	-712.83447265625	607.330810546875	-438.7965087890625	-621.5032348632812	517.0675659179688	-428.4043579101562	-838.1653442382812	165.4242095947266	-142.5448760986328	-742.5172729492188	375.158203125	-424.7132873535156	-699.5305786132812	513.4754638671875	-414.8373413085938	-517.7970581054688	659.30078125	-140.2766571044922	-686.8923950195312	62.11367416381836	-337.7145385742188	-592.99658203125	636.5648803710938	-127.8705749511719	-486.0141296386719	565.5948486328125	-162.3154754638672	-564.128662109375	538.4244384765625	-142.1638488769531	-646.989501953125	445.9922180175781	-416.8757629394531	-531.2670288085938	484.1781921386719	-149.0405883789062	-672.7661743164062	333.1535034179688	-410.1979675292969	-730.6754150390625	250.7901458740234	-391.8022155761719	-597.52978515625	394.3734130859375	-150.0337066650391	-752.6236572265625	61.67471313476562	-402.7809448242188	-643.2152099609375	466.9499816894531	-146.1318511962891	-928.4176635742188	92.9071807861328	-290.4508666992188	-688.7651977539062	346.432373046875	-162.4168853759766	-724.5785522460938	416.9021301269531	-158.0173187255859	-864.4445190429688	133.1708221435547	-376.3727111816406	-856.5453491210938	305.5606079101562	-174.9235687255859	-797.1771240234375	104.6761779785156	-203.6738433837891	-910.9315795898438	337.20458984375	-228.7257232666016	-929.6063232421876	308.0228881835938	-258.1119689941406	-929.1553344726562	325.4627075195312	-201.7227935791016	-939.06494140625	94.07560729980467	-344.6620483398438
